# xmcd
#
# Track frame offsets: 
#        150
#        16185
#        33660
#        53242
#        70675
#        88237
#        106097
#        122004
#        133387
#        149437
#        160007
#        177132
#
# Disc length: 2575 seconds
#
# Revision: 7
# Processed by: cddbd v1.5.2PL0 Copyright (c) Steve Scherf et al.
# Submitted via: ExactAudioCopy v0.95b3
#
DISCID=a20a0d0c
DTITLE=Willie Nelson - The Many Sides Of Willie Nelson: Easy
DYEAR=1992
DGENRE=Country
TTITLE0=Always On My Mind
TTITLE1=Without A Song
TTITLE2=Georgia On My Mind
TTITLE3=Stardust
TTITLE4=All Of Me
TTITLE5=Danny Boy
TTITLE6=Let It Be Me
TTITLE7=Mona Lisa
TTITLE8=Blue Skies
TTITLE9=Blue Eyes Crying In The Rain
TTITLE10=Wind Beneath My Wings
TTITLE11=Over The Rainbow
EXTD=YEAR: 1992 ID3G: 2
EXTT0=
EXTT1=
EXTT2=
EXTT3=
EXTT4=
EXTT5=
EXTT6=
EXTT7=
EXTT8=
EXTT9=
EXTT10=
EXTT11=
PLAYORDER=
